<svg xmlns="http://www.w3.org/2000/svg" version="1.1" xmlns:xlink="http://www.w3.org/1999/xlink" xmlns:svgjs="http://svgjs.dev/svgjs" width="2000" height="2250" viewBox="0 0 2000 2250"><g transform="matrix(1,0,0,1,0,0)"><svg viewBox="0 0 320 360" data-background-color="#ffffff" preserveAspectRatio="xMidYMid meet" height="2250" width="2000" xmlns="http://www.w3.org/2000/svg" xmlns:xlink="http://www.w3.org/1999/xlink"><g id="tight-bounds" transform="matrix(1,0,0,1,0,0)"><svg viewBox="0 0 320 360" height="360" width="320"><g><svg></svg></g><g><svg viewBox="0 0 320 360" height="360" width="320"><g><path xmlns="http://www.w3.org/2000/svg" d="M297.491 100.645c-12.426-21.51-112.674-79.355-137.491-79.355-24.817 0-125.028 57.845-137.491 79.355-11.591 20.02-11.591 138.726 0 158.746 12.463 21.474 112.674 79.319 137.491 79.319 24.817 0 125.064-57.845 137.491-79.355 11.591-20.02 11.591-138.69 0-158.71zM309.481 93.705c-14.461-24.998-119.469-86.295-149.481-86.295-30.012 0-135.02 61.297-149.481 86.295-14.025 24.199-14.025 148.391 0 172.59 14.461 24.998 119.469 86.295 149.481 86.295 30.012 0 135.02-61.297 149.481-86.259 14.025-24.235 14.025-148.427 0-172.626zM300.906 261.353c-12.753 22.055-115.472 81.317-140.906 81.318-25.434 0-128.153-59.298-140.906-81.354-11.881-20.529-11.881-142.178 0-162.707 12.753-22.019 115.472-81.281 140.906-81.281 25.434 0 128.153 59.298 140.906 81.318 11.881 20.529 11.881 142.178 0 162.706z" fill="#9cf5f5" fill-rule="nonzero" stroke="none" stroke-width="1" stroke-linecap="butt" stroke-linejoin="miter" stroke-miterlimit="10" stroke-dasharray="" stroke-dashoffset="0" font-family="none" font-weight="none" font-size="none" text-anchor="none" style="mix-blend-mode: normal" data-fill-palette-color="tertiary"></path></g><g transform="matrix(1,0,0,1,100.17647058823529,90)"><svg viewBox="0 0 119.64705882352942 180" height="180" width="119.64705882352942"><g><svg viewBox="0 0 119.64705882352942 180" height="180" width="119.64705882352942"><g><svg viewBox="0 0 119.64705882352942 180" height="180" width="119.64705882352942"><g><svg viewBox="0 0 119.64705882352942 180" height="180" width="119.64705882352942"><g id="textblocktransform"><svg viewBox="0 0 119.64705882352942 180" height="180" width="119.64705882352942" id="textblock"><g><svg viewBox="0 0 119.64705882352942 180" height="180" width="119.64705882352942"><g transform="matrix(1,0,0,1,0,0)"><svg width="119.64705882352942" viewBox="2.5999999046325684 -33.5 22.600000381469727 34" height="180" data-palette-color="#374151"><path d="M13.4 0.5L13.4 0.5Q10.2 0.5 7.83-0.13 5.45-0.75 3.1-1.95L3.1-1.95 2.6-10.3 3.5-10.3 6.55-4.55Q9.65-2 13.05-2L13.05-2Q15.85-2 17.55-3.38 19.25-4.75 19.25-7.3L19.25-7.3Q19.25-9.2 18.38-10.38 17.5-11.55 15.7-12.53 13.9-13.5 11-14.8L11-14.8Q7.5-16.5 5.6-18.48 3.7-20.45 3.7-23.8L3.7-23.8Q3.7-25.7 4.65-27.45 5.6-29.2 7.18-30.55 8.75-31.9 10.73-32.7 12.7-33.5 14.8-33.5L14.8-33.5Q17.3-33.5 19.48-32.93 21.65-32.35 23.65-31.3L23.65-31.3 24.15-23.3 23.3-23.3 20.25-28.8Q18.8-29.9 17.55-30.45 16.3-31 14.7-31L14.7-31Q12.6-31 11.23-29.6 9.85-28.2 9.85-26.05L9.85-26.05Q9.85-23.8 11.35-22.43 12.85-21.05 16.35-19.4L16.35-19.4Q19.4-18 21.35-16.65 23.3-15.3 24.25-13.6 25.2-11.9 25.2-9.4L25.2-9.4Q25.2-7 24.18-5.18 23.15-3.35 21.43-2.08 19.7-0.8 17.6-0.15 15.5 0.5 13.4 0.5Z" opacity="1" transform="matrix(1,0,0,1,0,0)" fill="#374151" class="wordmark-text-0" data-fill-palette-color="quaternary" id="text-0"></path></svg></g></svg></g></svg></g></svg></g><g></g></svg></g></svg></g></svg></g></svg></g><defs></defs></svg><rect width="320" height="360" fill="none" stroke="none" visibility="hidden"></rect></g></svg></g></svg>